<svg width="30" height="30" viewBox="0 0 30 30" fill="none" xmlns="http://www.w3.org/2000/svg">
<path d="M30 26.6667C30 27.5507 29.6488 28.3986 29.0237 29.0237C28.3986 29.6488 27.5507 30 26.6667 30L3.33333 30C2.44928 30 1.60143 29.6488 0.976312 29.0237C0.351191 28.3986 7.15256e-07 27.5507 7.15256e-07 26.6667L7.15256e-07 3.33333C7.15256e-07 2.44928 0.351191 1.60143 0.976312 0.976312C1.60143 0.351191 2.44928 7.15256e-07 3.33333 7.15256e-07L26.6667 7.15256e-07C27.5507 7.15256e-07 28.3986 0.351191 29.0237 0.976312C29.6488 1.60143 30 2.44928 30 3.33333L30 26.6667ZM16.6667 25V10.8333L22.5 16.6667L24.8667 14.3L15 4.43333L5.13333 14.3L7.5 16.6667L13.3333 10.8333L13.3333 25H16.6667Z" fill="white"/>
</svg>
