<svg width="38" height="38" viewBox="0 0 38 38" fill="none" xmlns="http://www.w3.org/2000/svg">
<path d="M31.6917 18.563C30.4858 19.7715 28.9486 20.5952 27.2745 20.93C25.6004 21.2648 23.8646 21.0957 22.2867 20.444L12.0077 32.832C10.1267 34.713 7.08667 34.713 5.20567 32.832C3.32467 30.951 3.32467 27.911 5.20567 26.049L17.5937 15.751C16.3017 12.616 16.9287 8.89198 19.4747 6.34598C21.9067 3.91398 25.4027 3.26798 28.4427 4.33198L22.9517 9.82298L28.3097 15.181L33.7437 9.72798C34.7507 12.73 34.0857 16.169 31.6917 18.563ZM7.23867 30.799C7.99867 31.54 9.21467 31.54 9.95567 30.799C10.7157 30.039 10.7157 28.823 9.95567 28.082C9.21467 27.322 7.99867 27.322 7.23867 28.082C6.88243 28.4444 6.68282 28.9323 6.68282 29.4405C6.68282 29.9487 6.88243 30.4365 7.23867 30.799Z" fill="white"/>
</svg>
