<svg width="51" height="51" viewBox="0 0 51 51" fill="none" xmlns="http://www.w3.org/2000/svg">
<path d="M46.1335 43.1163L43.116 46.1337C42.7178 46.5295 42.1792 46.7517 41.6179 46.7517C41.0565 46.7517 40.5179 46.5295 40.1197 46.1337L14.8747 20.9313C14.1837 21.1314 13.4691 21.2386 12.7497 21.25C11.3967 21.249 10.0635 20.9251 8.86096 20.3051C7.65838 19.6852 6.62116 18.7871 5.83554 17.6856C5.04992 16.5841 4.5386 15.3109 4.3441 13.972C4.14959 12.633 4.27751 11.267 4.71723 9.9875L10.1147 15.385L11.241 14.2587L14.2585 11.2413L15.3847 10.115L9.98723 4.7175C11.2668 4.27778 12.6328 4.14986 13.9717 4.34436C15.3106 4.53887 16.5838 5.05019 17.6853 5.83581C18.7868 6.62142 19.6849 7.65864 20.3049 8.86123C20.9248 10.0638 21.2488 11.397 21.2497 12.75C21.2384 13.4693 21.1312 14.184 20.931 14.875L46.1335 40.12C46.5293 40.5181 46.7514 41.0567 46.7514 41.6181C46.7514 42.1795 46.5293 42.7181 46.1335 43.1163ZM4.86598 40.12C4.4702 40.5181 4.24805 41.0567 4.24805 41.6181C4.24805 42.1795 4.4702 42.7181 4.86598 43.1163L7.88348 46.1337C8.28163 46.5295 8.82021 46.7517 9.38161 46.7517C9.943 46.7517 10.4816 46.5295 10.8797 46.1337L22.5035 34.5312L16.4897 28.5175M42.4997 4.25L33.9997 8.5V12.75L29.3885 17.3612L33.6385 21.6112L38.2497 17H42.4997L46.7497 8.5L42.4997 4.25Z" fill="white"/>
</svg>
