<svg width="87" height="87" viewBox="0 0 87 87" fill="none" xmlns="http://www.w3.org/2000/svg">
<path d="M65.75 35.75H51.25V21.25C51.25 19.3272 50.4862 17.4831 49.1265 16.1235C47.7669 14.7638 45.9228 14 44 14C42.0772 14 40.2331 14.7638 38.8735 16.1235C37.5138 17.4831 36.75 19.3272 36.75 21.25L37.0074 35.75H22.25C20.3272 35.75 18.4831 36.5138 17.1235 37.8735C15.7638 39.2331 15 41.0772 15 43C15 44.9228 15.7638 46.7669 17.1235 48.1265C18.4831 49.4862 20.3272 50.25 22.25 50.25L37.0074 49.9926L36.75 64.75C36.75 66.6728 37.5138 68.5169 38.8735 69.8765C40.2331 71.2362 42.0772 72 44 72C45.9228 72 47.7669 71.2362 49.1265 69.8765C50.4862 68.5169 51.25 66.6728 51.25 64.75V49.9926L65.75 50.25C67.6728 50.25 69.5169 49.4862 70.8765 48.1265C72.2362 46.7669 73 44.9228 73 43C73 41.0772 72.2362 39.2331 70.8765 37.8735C69.5169 36.5138 67.6728 35.75 65.75 35.75Z" fill="white"/>
</svg>
